<?xml version="1.0" standalone="no"?>
<!DOCTYPE svg PUBLIC "-//W3C//DTD SVG 20010904//EN"
 "http://www.w3.org/TR/2001/REC-SVG-20010904/DTD/svg10.dtd">
<svg version="1.0" xmlns="http://www.w3.org/2000/svg"
 width="327.000000pt" height="327.000000pt" viewBox="0 0 327.000000 327.000000"
 preserveAspectRatio="xMidYMid meet">
<metadata>
Created by potrace 1.16, written by Peter Selinger 2001-2019
</metadata>
<g transform="translate(0.000000,327.000000) scale(0.100000,-0.100000)"
fill="#000000" stroke="none">
<path d="M1530 3134 c-399 -49 -610 -275 -699 -750 -12 -60 -30 -188 -41 -284
-28 -245 -80 -426 -235 -830 -167 -435 -280 -678 -438 -944 -59 -98 -107 -180
-107 -182 0 -2 731 -4 1625 -4 894 0 1625 2 1625 4 0 2 -48 84 -106 182 -117
197 -176 310 -254 489 -113 260 -262 647 -328 855 -52 164 -71 253 -92 432
-34 295 -74 468 -140 615 -96 212 -268 351 -495 399 -72 15 -253 26 -315 18z
m-205 -985 c3 -3 -8 -6 -23 -5 -15 1 -33 -4 -40 -11 -7 -7 -20 -9 -29 -6 -12
5 -14 3 -8 -7 6 -10 4 -12 -10 -7 -14 6 -16 3 -12 -14 5 -19 4 -20 -12 -5 -25
23 -34 20 -20 -6 l12 -22 -29 19 -29 19 16 -25 c19 -30 171 -109 210 -109 29
0 113 29 106 36 -2 3 -20 -3 -40 -11 -51 -21 -67 -19 -148 17 -75 33 -75 34
-6 63 l34 14 0 -31 c0 -20 8 -38 22 -50 29 -22 50 -23 80 -2 l23 17 -32 13
c-39 17 -30 39 12 30 18 -3 27 -2 23 4 -10 17 7 11 39 -13 53 -40 63 -42 21
-4 -22 20 -53 41 -70 47 -71 27 -72 29 -44 29 14 1 48 -10 75 -24 62 -32 68
-32 22 0 -20 13 -55 29 -78 34 -23 5 -43 11 -45 13 -2 1 57 4 130 5 l133 2 6
-44 c9 -56 -1 -75 -61 -114 -102 -68 -252 -80 -378 -30 l-60 24 -3 77 -3 77
48 4 c72 5 164 4 168 -4z m555 2 c35 -2 35 -2 -13 -15 -27 -8 -58 -23 -70 -34
-19 -19 -16 -19 28 3 27 14 62 25 79 24 27 0 24 -3 -22 -19 -30 -10 -68 -31
-85 -46 -18 -16 -36 -33 -42 -38 -16 -15 17 5 51 31 39 29 39 29 41 -4 1 -29
35 -63 62 -63 9 0 27 7 40 16 l23 17 -32 13 c-38 16 -31 39 11 30 22 -4 27 -2
22 10 -5 13 -1 13 33 -1 22 -9 45 -19 53 -23 18 -7 -81 -58 -130 -67 -24 -4
-50 -1 -74 9 -21 9 -40 15 -42 12 -7 -7 77 -36 106 -36 39 0 191 79 210 109
l16 25 -29 -19 -29 -19 12 22 c14 26 5 29 -20 6 -16 -15 -17 -14 -12 7 4 15 3
20 -5 15 -7 -4 -12 -2 -12 4 0 7 -7 10 -15 6 -8 -3 -21 1 -29 9 -7 8 -16 12
-19 9 -3 -3 -20 -1 -38 4 -33 8 20 9 169 4 l43 -2 -3 -77 -3 -78 -60 -24
c-126 -50 -276 -38 -378 30 -59 39 -71 60 -63 114 l7 43 92 -3 c51 -1 108 -3
127 -4z"/>
</g>
</svg>
